<?xml version="1.0" standalone="no"?>
<!DOCTYPE svg PUBLIC "-//W3C//DTD SVG 20010904//EN"
 "http://www.w3.org/TR/2001/REC-SVG-20010904/DTD/svg10.dtd">
<svg version="1.0" xmlns="http://www.w3.org/2000/svg"
 width="100.000000pt" height="100.000000pt" viewBox="0 0 100.000000 100.000000"
 preserveAspectRatio="xMidYMid meet">
<metadata>
Created by potrace 1.11, written by Peter Selinger 2001-2013
</metadata>
<g transform="translate(0.000000,100.000000) scale(0.100000,-0.100000)"
fill="#000000" stroke="none">
<path d="M854 769 c-10 -17 13 -36 27 -22 12 12 4 33 -11 33 -5 0 -12 -5 -16
-11z"/>
<path d="M267 692 c-15 -16 -17 -45 -17 -199 0 -162 2 -182 18 -196 16 -15 48
-17 234 -17 195 0 216 2 231 18 15 16 17 45 17 199 0 162 -2 182 -18 196 -16
15 -48 17 -234 17 -195 0 -216 -2 -231 -18z m453 -12 c11 -11 20 -29 20 -40 0
-19 -7 -20 -240 -20 -233 0 -240 1 -240 20 0 11 9 29 20 40 19 19 33 20 220
20 187 0 201 -1 220 -20z m-267 -146 c20 -19 37 -38 37 -42 0 -12 -68 -82 -79
-82 -18 0 -12 13 22 48 l32 34 -32 27 c-31 25 -43 51 -25 51 4 0 24 -16 45
-36z m165 -122 c2 -8 -13 -12 -52 -12 -50 0 -75 12 -44 22 24 8 92 1 96 -10z
m122 -72 c0 -6 -9 -19 -20 -30 -19 -19 -33 -20 -220 -20 -187 0 -201 1 -220
20 -11 11 -20 25 -20 30 0 6 87 10 240 10 153 0 240 -4 240 -10z"/>
<path d="M310 655 c0 -8 7 -15 15 -15 8 0 15 7 15 15 0 8 -7 15 -15 15 -8 0
-15 -7 -15 -15z"/>
<path d="M370 655 c0 -8 7 -15 15 -15 8 0 15 7 15 15 0 8 -7 15 -15 15 -8 0
-15 -7 -15 -15z"/>
<path d="M234 139 c-10 -17 13 -36 27 -22 12 12 4 33 -11 33 -5 0 -12 -5 -16
-11z"/>
</g>
</svg>
